<svg id="ea94c75a-023d-40eb-b514-92e558a8e842" xmlns="http://www.w3.org/2000/svg" viewBox="0 0 1646.5 620"><defs><style>.cls-1{fill:#0071d4;}.cls-2{fill:#fff;}</style></defs><rect class="cls-1" x="1026.5" width="620" height="620" rx="20"/><path d="M171.22,685l34.32-46.4c27.91,21.55,54.93,34.74,86.81,34.74,34.32,0,50.45-16,50.45-37.28,0-26.12-34.06-37.78-67.61-50.46-41.23-15.34-88.35-38.8-88.35-90.78,0-54,44-93.06,114.48-93.06,43.79,0,78.87,17.62,104.48,37.27L372,483.91c-22-16-44.18-27.14-68.89-27.14-31.63,0-46.61,15-46.61,34.49,0,24.6,31.76,34,65.82,46.4,42.51,15.73,90.14,36,90.14,94.08,0,53.51-42.77,96.61-122.16,96.61C247.28,728.35,202,710.1,171.22,685Z" transform="translate(-171.22 -189.29)"/><path d="M467.26,604.61V409.35H541V595.23c0,51.22,14.86,70.49,48.92,70.49,27.65,0,45.84-12.68,69.65-43.11V409.35h73.76v311.4H672.9l-5.63-45.9h-2c-27.66,32.46-58.14,53.5-101.16,53.5C496.71,728.35,467.26,683.22,467.26,604.61Z" transform="translate(-171.22 -189.29)"/><path d="M886,688h-2l-6.4,32.71H819.38V272.93h73.75V388.81l-2,51.73c26.25-22.82,58.52-38.79,90.79-38.79,78.62,0,124.08,62.38,124.08,158.1,0,106.88-64.28,168.5-134.2,168.5C943.07,728.35,912.34,713.9,886,688Zm144.18-127c0-62.12-20.49-98.89-68.37-98.89-22.8,0-44.82,11.41-68.64,35v145c22,19,44.82,25.86,63,25.86,42,0,74-36.51,74-107Z" transform="translate(-171.22 -189.29)"/><path class="cls-2" d="M1327.18,314.82h79.76V710.23h-79.76Z" transform="translate(-171.22 -189.29)"/><path class="cls-2" d="M1556.21,379.92h-84.07V313.75H1720v66.17h-83.5V710.23h-80.29Z" transform="translate(-171.22 -189.29)"/></svg>